<svg xmlns="http://www.w3.org/2000/svg" width="11.781" height="11.782" viewBox="0 0 11.781 11.782">
  <metadata><?xpacket begin="﻿" id="W5M0MpCehiHzreSzNTczkc9d"?>
<x:xmpmeta xmlns:x="adobe:ns:meta/" x:xmptk="Adobe XMP Core 5.6-c138 79.159824, 2016/09/14-01:09:01        ">
   <rdf:RDF xmlns:rdf="http://www.w3.org/1999/02/22-rdf-syntax-ns#">
      <rdf:Description rdf:about=""/>
   </rdf:RDF>
</x:xmpmeta>
                                                                                                    
                                                                                                    
                                                                                                    
                                                                                                    
                                                                                                    
                                                                                                    
                                                                                                    
                                                                                                    
                                                                                                    
                                                                                                    
                                                                                                    
                                                                                                    
                                                                                                    
                                                                                                    
                                                                                                    
                                                                                                    
                                                                                                    
                                                                                                    
                                                                                                    
                                                                                                    
                           
<?xpacket end="w"?></metadata>
<defs>
    <style>
      .cls-1 {
        fill: #2aa955;
        fill-rule: evenodd;
      }
    </style>
  </defs>
  <path id="_" data-name=" " class="cls-1" d="M800.321,544.879a1.292,1.292,0,0,1,.393.946v6.964a1.344,1.344,0,0,1-1.339,1.34h-6.964a1.345,1.345,0,0,1-1.34-1.34v-6.964a1.344,1.344,0,0,1,1.34-1.339h6.964A1.291,1.291,0,0,1,800.321,544.879Zm0.757-.757a2.319,2.319,0,0,0-1.7-.708h-6.964A2.416,2.416,0,0,0,790,545.825v6.964a2.414,2.414,0,0,0,2.411,2.411h6.964a2.416,2.416,0,0,0,2.411-2.411v-6.964A2.319,2.319,0,0,0,801.078,544.122Z" transform="translate(-790 -543.406)"/>
</svg>
