<svg xmlns="http://www.w3.org/2000/svg" width="12.844" height="12.875" viewBox="0 0 12.844 12.875">
  <metadata><?xpacket begin="﻿" id="W5M0MpCehiHzreSzNTczkc9d"?>
<x:xmpmeta xmlns:x="adobe:ns:meta/" x:xmptk="Adobe XMP Core 5.6-c138 79.159824, 2016/09/14-01:09:01        ">
   <rdf:RDF xmlns:rdf="http://www.w3.org/1999/02/22-rdf-syntax-ns#">
      <rdf:Description rdf:about=""/>
   </rdf:RDF>
</x:xmpmeta>
                                                                                                    
                                                                                                    
                                                                                                    
                                                                                                    
                                                                                                    
                                                                                                    
                                                                                                    
                                                                                                    
                                                                                                    
                                                                                                    
                                                                                                    
                                                                                                    
                                                                                                    
                                                                                                    
                                                                                                    
                                                                                                    
                                                                                                    
                                                                                                    
                                                                                                    
                                                                                                    
                           
<?xpacket end="w"?></metadata>
<defs>
    <style>
      .cls-1 {
        fill: #2aa955;
        fill-rule: evenodd;
      }
    </style>
  </defs>
  <path id="_" data-name=" " class="cls-1" d="M795.357,553.375a0.516,0.516,0,0,1-.377-0.159l-3-3a0.526,0.526,0,0,1,0-.754l0.854-.854a0.525,0.525,0,0,1,.753,0l1.766,1.767,3.909-3.909a0.526,0.526,0,0,1,.754,0l0.853,0.853a0.526,0.526,0,0,1,0,.754l-5.139,5.139A0.516,0.516,0,0,1,795.357,553.375Zm6.793-9.253a2.323,2.323,0,0,0-1.7-.708h-8.035A2.416,2.416,0,0,0,790,545.825v8.036a2.416,2.416,0,0,0,2.411,2.411h8.035a2.416,2.416,0,0,0,2.411-2.411v-8.036A2.322,2.322,0,0,0,802.15,544.122Z" transform="translate(-790 -543.406)"/>
</svg>
