<?xml version="1.0" encoding="utf-8"?>
<!-- Generator: Adobe Illustrator 21.0.2, SVG Export Plug-In . SVG Version: 6.00 Build 0)  -->
<svg version="1.1"
	 id="svg2" inkscape:version="0.91 r13725" sodipodi:docname="gag-icon.svg" xmlns:cc="http://creativecommons.org/ns#" xmlns:dc="http://purl.org/dc/elements/1.1/" xmlns:inkscape="http://www.inkscape.org/namespaces/inkscape" xmlns:rdf="http://www.w3.org/1999/02/22-rdf-syntax-ns#" xmlns:sodipodi="http://sodipodi.sourceforge.net/DTD/sodipodi-0.dtd" xmlns:svg="http://www.w3.org/2000/svg"
	 xmlns="http://www.w3.org/2000/svg" xmlns:xlink="http://www.w3.org/1999/xlink" x="0px" y="0px" viewBox="0 0 345 332.6"
	 style="enable-background:new 0 0 345 332.6;" xml:space="preserve">
<style type="text/css">
	.st0{fill:#070707;}
	.st1{fill:#FB7322;}
</style>
<path class="st0" d="M39.5,331.5c-10.8-3.6-19-10.3-23.9-19.6c-3.6-6.8-3.3-23.8,0.6-31.3c3.1-5.8,93.9-98.2,99.6-101.3
	c2.4-1.3,3.5-1.2,6.1,0.5c1.8,1.2,3.2,3.3,3.2,4.8c0,1.9-14.5,17.3-49.3,52.2c-41.6,41.8-49.5,50.2-50.6,54.4
	c-1.7,6.1-1.7,6.4-0.1,12.1c2.6,9.3,12.7,17.1,22.2,17.2c8.8,0.1,12.6-3.1,54.1-44.4c22.4-22.3,41.6-40.6,42.8-40.6
	c2.8,0,7.1,4.4,7.1,7.2c0,1.2-18.4,20.6-40.9,43.1c-31,31-42.3,41.5-46.7,43.4C56.2,332.6,45.8,333.6,39.5,331.5L39.5,331.5z"/>
<g>
	<path class="st1" d="M264.1,209.1c-38-38.1-58.4-57.6-60.9-58.4c-2.1-0.6-15.9-3.2-30.6-5.7l-26.9-4.6l-27.8-27.7L90.1,85
		l-24.5-0.6l-24.5-0.6l-13-23c-7.1-12.6-13-23.6-13-24.3c0-1.6,15.1-17,16.6-17c0.6,0,11.5,6.3,24.2,13.9L79,47.3l-0.9,12.8
		c-1,14,0.1,16.9,6.2,16.9c5.5,0,6.3-2.8,6.3-21.1v-17L62.5,22.3C47,13.2,33.1,5.4,31.4,4.9c-2.5-0.7-5.1,1.4-17.2,13.4
		C5.4,27.1,0,33.5,0,35c0,2,25.3,48.7,31.9,58.9c1.6,2.5,3.2,2.7,27.1,3.5l25.4,0.9l26,25.9l26,25.9l5,29.4l5,29.4l59,58.9
		c53.9,53.8,59.6,59.1,65.9,61.5l0,0c20.9,7.9,44.2-1.4,53.2-21.3c2.9-6.4,3.6-9.6,3.6-17.3C328.2,273,328.9,274,264.1,209.1z
		 M315.1,302.6c-2.5,6.5-7.7,12-14.2,15.1l0,0c-8.6,4-17.1,4-25.2-0.1c-4.6-2.3-20.1-17-61.5-58.5l-55.3-55.4l-4.3-24.3
		c-2.4-13.4-4.1-24.5-3.9-24.7c0.2-0.2,11.1,1.3,24,3.5l23.6,4l56.6,56.4c32.5,32.3,57.7,58.4,59.2,61.2
		C316.9,285.3,317.4,296.5,315.1,302.6z"/>
	<path class="st1" d="M177.4,175.6c-3.5,0-6.5,3.6-5.8,6.8c0.5,2.1,115.4,118.4,118.9,120.3c4.1,2.3,9.6-1,9.6-5.7
		c0-1.1-26.9-28.8-59.7-61.6C190.9,185.7,180.2,175.6,177.4,175.6z"/>
</g>
<path class="st0" d="M260.7,181.3c-3-4.6-1.3-7.9,4.8-9.6c22.2-6,29.9-10.2,42.9-23c8.3-8.1,11.1-12,15.2-20.6
	c6.4-13.6,8.3-21.7,8.3-35.6c0-10.7-2.3-24.4-4.1-24.4c-0.5,0-8.4,7.6-17.6,16.8c-19.1,19.1-24.4,22.3-36.9,22.3
	c-9.2,0-18-3.6-24.8-10.2c-7-6.8-9.9-13.2-10.6-23.5c-0.9-13.9,2.3-19.7,22.5-40.1c9-9.1,16.2-16.8,15.9-17.1
	c-1.9-1.6-14-3.3-23.9-3.3c-22.5,0-39.2,7-55.6,23.2c-8.3,8.2-11.3,12.2-15.3,20.7c-8.7,18.1-10.5,32.8-6.7,52.8
	c2.3,12.2,1.7,15-3.5,15.5c-4.9,0.5-6.3-1.3-8.7-11.7c-4.8-19.9-2.3-41.9,6.8-61.1C189.5,10.3,238.1-10.1,282.6,5
	c10.9,3.7,12.5,4.9,12.5,9.2c0,2.6-4.4,7.7-20.6,23.9c-22.7,22.6-25.4,26.8-23.8,36.5c2.4,15.2,19.1,24.3,32.4,17.7
	c2.2-1.1,13.3-11.2,24.7-22.5s21.7-20.5,22.8-20.5c7.9,0,15.7,26.9,14.2,48.7c-0.9,13.7-3.5,23.2-9.6,35.7
	c-11.5,23.8-33.9,42-59.6,48.6C265.2,185.1,263,184.9,260.7,181.3L260.7,181.3z"/>
</svg>
