<?xml version="1.0" encoding="utf-8"?>
<!-- Generator: Adobe Illustrator 21.0.2, SVG Export Plug-In . SVG Version: 6.00 Build 0)  -->
<svg version="1.1" xmlns="http://www.w3.org/2000/svg" xmlns:xlink="http://www.w3.org/1999/xlink" x="0px" y="0px"
	 viewBox="0 0 505.6 190.4" style="enable-background:new 0 0 505.6 190.4;" xml:space="preserve">
<style type="text/css">
	.st0{fill:#ECECEC;}
	.st1{fill:#FFFFFF;}
	.st2{fill:#2D2D2D;}
	.st3{fill:#FF7221;}
</style>
<g id="Слой_2_1_">
</g>
<g id="Слой_3">
	<g>
		<path class="st0" d="M199.3,79.1h-2.2V22.7h2.2v13.9h0.2c0.5-2,1.3-4,2.4-5.9c1.1-1.9,2.6-3.6,4.4-5c1.8-1.4,4-2.5,6.5-3.3
			c2.5-0.8,5.5-1.1,8.8-1v2.2c-3.9-0.2-7.2,0.3-10,1.6c-2.8,1.3-5.1,3-7,5.3c-1.8,2.2-3.2,4.8-4.1,7.7c-0.9,2.9-1.3,5.9-1.3,9V79.1z
			"/>
		<path class="st0" d="M277.8,63.5c-0.7,2-2.1,4.6-4.3,7.7c-4.7,6.1-11,9.2-19,9.2c-7.9,0-14.2-3.1-19-9.2
			c-4.2-5.6-6.4-12.4-6.4-20.6c0-8.1,2.2-15,6.5-20.6c4.8-6.1,11.1-9.1,19-9.1c7.9,0,14.2,3.1,18.9,9.2c1.8,2.3,3.3,4.9,4.3,7.6
			V22.2h2.2v57h-2.2V63.5z M277.8,50.6c0-7.5-1.9-13.8-5.8-19c-4.3-5.7-10.1-8.6-17.3-8.6c-7.2,0-13,2.9-17.3,8.6
			c-4,5.1-5.9,11.5-5.9,19c0,7.6,1.9,14,5.8,19.1c4.3,5.7,10.1,8.6,17.5,8.6s13.1-2.9,17.3-8.6C275.9,64.5,277.8,58.1,277.8,50.6z"
			/>
		<path class="st0" d="M338.9,79.1h-2.2V63.2h-0.2c-1.5,5.2-4.2,9.4-8.3,12.5c-4.1,3.1-8.9,4.7-14.3,4.7c-7.8,0-13.8-3.1-18.2-9.3
			c-3.9-5.5-5.8-12.3-5.8-20.4c0-8,2-14.8,5.9-20.4c4.4-6.3,10.4-9.4,18.1-9.4c5.6,0,10.5,1.5,14.5,4.6c4,3,6.7,7.3,8.1,12.7h0.2V0
			h2.2V79.1z M336.7,50.7c0-7.9-1.8-14.3-5.4-19.2c-4-5.6-9.8-8.5-17.5-8.5c-7.1,0-12.6,2.9-16.6,8.8c-3.5,5.1-5.3,11.4-5.3,18.9
			c0,7.5,1.7,13.8,5.2,18.9c4,5.8,9.5,8.7,16.7,8.7c7.2,0,12.9-2.9,17.1-8.7C334.8,64.5,336.7,58.2,336.7,50.7z"/>
		<path class="st0" d="M354.1,11.2h-2.2V0h2.2V11.2z M354.1,79.1h-2.2v-57h2.2V79.1z"/>
		<path class="st0" d="M416.2,63.5c-0.7,2-2.1,4.6-4.3,7.7c-4.7,6.1-11,9.2-19,9.2c-7.9,0-14.2-3.1-19-9.2
			c-4.2-5.6-6.4-12.4-6.4-20.6c0-8.1,2.2-15,6.5-20.6c4.8-6.1,11.1-9.1,19-9.1c7.9,0,14.2,3.1,18.9,9.2c1.8,2.3,3.3,4.9,4.3,7.6
			V22.2h2.2v57h-2.2V63.5z M416.2,50.6c0-7.5-1.9-13.8-5.8-19c-4.3-5.7-10.1-8.6-17.3-8.6c-7.2,0-13,2.9-17.3,8.6
			c-4,5.1-5.9,11.5-5.9,19c0,7.6,1.9,14,5.8,19.1c4.3,5.7,10.1,8.6,17.5,8.6s13.1-2.9,17.3-8.6C414.3,64.5,416.2,58.1,416.2,50.6z"
			/>
		<path class="st0" d="M474.4,79.1h-2.2V41.7c0-5.7-1.6-10.2-4.7-13.6c-3.1-3.4-7.5-5-13.2-5c-6.4,0-11.6,2.4-15.4,7.2
			c-3.4,4.4-5.2,9.9-5.2,16.6v32.3h-2.2v-57h2.2v14h0.2c1.2-4.8,3.6-8.5,7.3-11.2c3.7-2.7,8-4.1,13-4.1c6.2,0,11.1,1.9,14.7,5.6
			c3.6,3.7,5.4,8.7,5.4,14.9V79.1z"/>
		<path class="st0" d="M505.6,24.4h-12.7v54.8h-2.2V24.4h-7v-2.2h7V8.7l2.2-4.5v18h12.7V24.4z"/>
		<path class="st0" d="M192.3,168.4c0,7.2-2,12.6-5.9,16.4c-3.9,3.7-9.5,5.6-16.7,5.6c-5.9,0-10.7-1.4-14.4-4.1
			c-4.1-3.1-6.2-7.5-6.3-13.2h2.1c0.2,5.1,2.1,8.9,5.7,11.6c3.2,2.4,7.5,3.6,12.8,3.6c13.7,0,20.6-6.6,20.6-19.9v-16.6H190
			c-1.1,4.6-3.6,8.4-7.8,11.2c-4.1,2.8-8.6,4.2-13.6,4.2c-7.3,0-12.9-2.6-17-7.9c-3.7-4.8-5.6-10.9-5.6-18.4
			c0-7.6,1.9-13.9,5.8-18.8c4.3-5.3,10.1-8,17.5-8c4.9,0,9.2,1.5,13.1,4.4c3.9,3,6.4,6.8,7.5,11.4h0.2v-14.6h2.1V168.4z M190.1,141
			c0-6.7-1.7-12.4-5.2-17c-3.9-5.1-9-7.7-15.5-7.7c-6.8,0-12.1,2.5-15.9,7.5c-3.5,4.5-5.3,10.2-5.3,17.2c0,6.8,1.7,12.4,5,16.8
			c3.7,4.9,8.9,7.4,15.4,7.4c6.7,0,12-2.4,16.1-7.2C188.3,153.5,190.1,147.8,190.1,141z"/>
		<path class="st0" d="M204.8,170.2h-2.1V116h2.1v13.4h0.2c0.5-2,1.3-3.9,2.3-5.7c1.1-1.8,2.5-3.4,4.2-4.8c1.8-1.4,3.9-2.4,6.3-3.2
			c2.4-0.7,5.3-1.1,8.5-1v2.1c-3.7-0.2-7,0.3-9.7,1.5c-2.7,1.2-4.9,2.9-6.7,5.1c-1.8,2.1-3.1,4.6-3.9,7.4c-0.8,2.8-1.3,5.7-1.3,8.7
			V170.2z"/>
		<path class="st0" d="M278.3,155.2c-0.6,2-2,4.4-4.1,7.4c-4.5,5.9-10.6,8.9-18.3,8.9c-7.6,0-13.7-3-18.3-8.9
			c-4.1-5.4-6.1-12-6.1-19.9c0-7.8,2.1-14.4,6.2-19.9c4.6-5.8,10.7-8.8,18.3-8.8c7.6,0,13.7,3,18.2,8.9c1.8,2.3,3.1,4.7,4.1,7.3
			v-14.9h2.1v54.8h-2.1V155.2z M278.3,142.8c0-7.2-1.9-13.3-5.6-18.3c-4.2-5.5-9.7-8.2-16.7-8.2c-7,0-12.5,2.7-16.7,8.2
			c-3.8,4.9-5.7,11-5.7,18.3c0,7.3,1.9,13.4,5.6,18.4c4.2,5.5,9.8,8.2,16.8,8.2c7,0,12.6-2.7,16.7-8.2
			C276.4,156.2,278.3,150,278.3,142.8z"/>
		<path class="st0" d="M338.2,142.7c0,7.7-1.9,14.3-5.6,19.6c-4.3,6.1-10.1,9.2-17.5,9.2c-5.4,0-10-1.5-13.9-4.4
			c-3.9-3-6.5-7-7.9-12.1h-0.2v34.2H291v-73.7h2.1v15.3h0.2c1.4-5,4.1-9,8-12c3.9-3,8.5-4.5,13.7-4.5c7.5,0,13.3,3,17.5,9
			C336.3,128.4,338.2,134.9,338.2,142.7z M336.1,142.7c0-7.2-1.7-13.2-5-18.1c-3.8-5.6-9.2-8.3-16.1-8.3c-6.9,0-12.4,2.7-16.5,8.2
			c-3.7,5-5.5,11.1-5.5,18.2c0,7.6,1.7,13.8,5.2,18.6c3.9,5.4,9.5,8.1,16.8,8.1c6.9,0,12.3-2.9,16.1-8.6
			C334.4,155.9,336.1,149.9,336.1,142.7z"/>
		<path class="st0" d="M345.6,94.8h2.1v34.5h0.2c0.5-2.1,1.3-4,2.4-5.8c1.1-1.8,2.5-3.3,4.1-4.6c1.7-1.3,3.6-2.4,5.8-3.1
			c2.2-0.7,4.6-1.1,7.3-1.1c2.8,0,5.4,0.4,7.8,1.3c2.4,0.8,4.4,2.1,6.1,3.7c1.7,1.7,3.1,3.7,4,6.1s1.4,5.2,1.4,8.4v36h-2.1v-35.7
			c0-3.2-0.5-5.9-1.4-8.1c-0.9-2.2-2.2-4-3.7-5.5c-1.6-1.4-3.4-2.5-5.5-3.2c-2.1-0.7-4.3-1-6.6-1c-3.2,0-6.1,0.6-8.6,1.8
			c-2.5,1.2-4.5,2.9-6.2,5c-1.7,2.1-2.9,4.5-3.7,7.2c-0.8,2.7-1.3,5.6-1.3,8.7v30.7h-2.1V94.8z"/>
		<path class="st0" d="M396.4,104.9h-2.1V94.1h2.1V104.9z M396.4,170.2h-2.1v-54.8h2.1V170.2z"/>
		<path class="st0" d="M453.4,151.6c-0.6,6.1-2.9,10.9-6.9,14.5c-4,3.6-9.1,5.4-15.3,5.4c-7.5,0-13.4-2.7-17.8-8.2
			c-4.2-5.1-6.2-11.5-6.2-19.2c0-8.5,2.1-15.5,6.2-20.9c4.5-6,10.9-9,19.1-9c5.5,0,10.1,1.6,13.9,4.9c3.8,3.2,6,7.6,6.6,13h-2.1
			c-0.8-4.9-2.8-8.7-6.1-11.5c-3.3-2.8-7.4-4.2-12.3-4.2c-7.6,0-13.5,2.8-17.6,8.4c-3.7,5-5.6,11.4-5.6,19.3c0,7,1.9,12.9,5.6,17.6
			c4.1,5.1,9.5,7.7,16.4,7.7c5.4,0,10-1.6,13.8-4.9c3.8-3.3,5.9-7.6,6.2-12.9H453.4z"/>
		<path class="st0" d="M502.6,156.3c0,5-2.1,8.9-6.3,11.6c-3.6,2.4-8,3.6-13.3,3.6c-14.6,0-22-6.7-22-20.1h2.1c0,12,6.6,18,19.9,18
			c4.6,0,8.5-1,11.7-3c3.9-2.3,5.8-5.6,5.8-9.9c0-5.3-3.2-9.1-9.7-11.3c-6-1.5-12-3.1-18-4.6c-6.5-2.5-9.7-6.7-9.7-12.7
			c0-4.6,2-8.1,6-10.6c3.4-2.1,7.5-3.2,12.4-3.2c13.1,0,19.6,5.8,19.6,17.4H499c0-10.2-5.8-15.3-17.5-15.3c-4.2,0-7.8,0.8-10.8,2.5
			c-3.7,2.1-5.5,5.1-5.5,9.1c0,5.2,3.2,8.9,9.7,11.1c6,1.5,12,3.1,18,4.8C499.4,146.2,502.6,150.4,502.6,156.3z"/>
	</g>
</g>
<g id="Слой_1">
	<title>logo</title>
	<g id="Слой_2">
		<g id="Слой_1-2">
			<g>
				<path class="st1" d="M89.1,110.7c5.6,0,10.2-2.1,13.6-6.5c3.5-4.3,5.2-10,5.2-17.1v-6.9c0-5.5-1.7-10.3-4.9-14.2
					s-7.6-5.9-12.8-5.9c-6,0-10.7,2.3-14.2,7c-3.4,4.7-5.2,11.3-5.2,19.8c0,7.3,1.6,13.1,4.9,17.4C79,108.6,83.4,110.7,89.1,110.7z"
					/>
				<path class="st1" d="M51.4,165.6v-22.9c9,5.3,18.2,7.9,27.4,7.9c9.1,0,16.3-2.4,21.3-7.3c5-4.8,7.6-11.4,7.6-19.7v-6.9h-0.3
					c-6.2,9.9-15.3,14.7-27.4,14.7c-11.2,0-20.1-4-26.7-11.9s-9.9-18.5-9.9-31.7c0-9.4,1.5-17.6,4.4-24.6c-0.6,0-1.2,0-1.8,0
					c-5.9,0-10.5,2.1-13.8,6.5s-4.9,10.2-5,17.6v42h-27v41h72.1C63.7,169.8,56.8,168.2,51.4,165.6z"/>
				<path class="st1" d="M0.1,20v21.5h27v16.3h0.3c4.3-11.9,12.1-17.9,23.2-17.9c2.9,0,5.1,0.3,6.7,1v8.2c6.9-6.5,15.5-9.9,25.8-9.9
					c10.7,0,18.7,4.1,24,12.4h0.3V41.4h27.1v77.9h0c0,16.3-4.7,29-14.2,37.9c-8.2,7.8-19.5,12.2-34.1,13.2h57.7L174.4,20H0.1z"/>
			</g>
			<path class="st2" d="M134.7,119.3V41.4h-27.1v10.2h-0.3c-5.3-8.3-13.3-12.4-24-12.4c-10.4,0-18.9,3.3-25.8,9.9V41
				c-1.6-0.7-3.8-1-6.7-1c-11.1,0-18.9,6-23.2,17.9h-0.3V41.5H0v87.9h27.1v-42c0-7.5,1.7-13.3,5-17.6c3.3-4.3,7.9-6.5,13.8-6.5
				c0.6,0,1.2,0,1.8,0c-2.9,6.9-4.4,15.1-4.4,24.6c0,13.2,3.3,23.8,9.9,31.7s15.5,11.9,26.7,11.9c12.1,0,21.2-4.9,27.4-14.7h0.3v6.9
				c0,8.3-2.5,14.8-7.6,19.7c-5,4.9-12.2,7.3-21.3,7.3c-9.2,0-18.4-2.6-27.4-7.9v22.9c6.9,3.4,16.3,5.1,28.2,5.1
				c17.9,0,31.6-4.5,41-13.4C130,148.3,134.7,135.6,134.7,119.3L134.7,119.3z M108,87.1c0,7.1-1.8,12.8-5.2,17.1
				c-3.5,4.3-8,6.5-13.6,6.5c-5.7,0-10.1-2.1-13.4-6.4c-3.3-4.2-4.9-10.1-4.9-17.4c0-8.5,1.8-15.1,5.2-19.8c3.4-4.7,8.2-7,14.2-7
				c5.3,0,9.6,1.9,12.8,5.9c3.3,4,4.9,8.7,4.9,14.2L108,87.1L108,87.1z"/>
			<path class="st3" d="M144.3,170.4h-24.3L150,20h24.3L144.3,170.4z"/>
		</g>
	</g>
</g>
</svg>
